<svg width="32" height="29" viewBox="0 0 32 29" fill="none" xmlns="http://www.w3.org/2000/svg">
<path d="M24.6451 0.83595C28.3854 1.61024 30.5889 3.98738 31.585 7.59547C31.6511 7.83601 31.6551 8.0937 31.7216 8.33424C31.8383 8.75551 31.8841 9.19355 31.8841 9.63093V10.7459C31.8841 11.1064 31.8185 11.4612 31.7292 11.8105C31.7049 11.9061 31.7143 12.0141 31.6962 12.1041C31.3718 13.7131 30.6745 15.1538 29.7509 16.4952C28.8898 17.7456 27.8729 18.8638 26.7901 19.9221C23.8948 22.7538 20.72 25.2687 17.6818 27.9392C16.6115 28.8797 15.7796 28.8768 14.7044 27.9541C12.9521 26.4509 11.1961 24.9522 9.45123 23.4407C7.27289 21.554 5.09442 19.6653 3.28754 17.4001C1.21515 14.8025 0.127261 11.9196 0.592715 8.53059C1.0633 5.10743 3.35541 2.22401 6.50458 1.14662C6.7807 1.05201 7.06476 0.981763 7.3526 0.934644C7.96759 0.833936 9.18817 0.682691 10.4894 0.793287C12.7822 0.988416 14.5233 2.36891 15.9136 4.15535C16.1808 4.49904 16.295 4.34962 16.4882 4.10548C17.6567 2.6316 19.0972 1.54347 20.9239 1.00471C20.9239 1.00471 23.1155 0.519422 24.6451 0.83595Z" fill="#DE981B"/>
</svg>
